<svg viewBox="0 0 330 200" xmlns="http://www.w3.org/2000/svg"><g><g><g><g><g><line x1="51.53200149536133" y1="176.86499977111816" x2="46.53200149536133" y2="176.86499977111816" style="visibility: inherit;" fill="rgb(0, 0, 0)" stroke="rgb(204, 204, 204)" stroke-width="1px"></line><line x1="51.53200149536133" y1="159.17849979400634" x2="46.53200149536133" y2="159.17849979400634" style="visibility: inherit;" fill="rgb(0, 0, 0)" stroke="rgb(204, 204, 204)" stroke-width="1px"></line><line x1="51.53200149536133" y1="141.4919998168945" x2="46.53200149536133" y2="141.4919998168945" style="visibility: inherit;" fill="rgb(0, 0, 0)" stroke="rgb(204, 204, 204)" stroke-width="1px"></line><line x1="51.53200149536133" y1="123.80549983978267" x2="46.53200149536133" y2="123.80549983978267" style="visibility: inherit;" fill="rgb(0, 0, 0)" stroke="rgb(204, 204, 204)" stroke-width="1px"></line><line x1="51.53200149536133" y1="106.11899986267082" x2="46.53200149536133" y2="106.11899986267082" style="visibility: inherit;" fill="rgb(0, 0, 0)" stroke="rgb(204, 204, 204)" stroke-width="1px"></line><line x1="51.53200149536133" y1="88.43249988555918" x2="46.53200149536133" y2="88.43249988555918" style="visibility: inherit;" fill="rgb(0, 0, 0)" stroke="rgb(204, 204, 204)" stroke-width="1px"></line><line x1="51.53200149536133" y1="70.74599990844735" x2="46.53200149536133" y2="70.74599990844735" style="visibility: inherit;" fill="rgb(0, 0, 0)" stroke="rgb(204, 204, 204)" stroke-width="1px"></line><line x1="51.53200149536133" y1="53.059499931335516" x2="46.53200149536133" y2="53.059499931335516" style="visibility: inherit;" fill="rgb(0, 0, 0)" stroke="rgb(204, 204, 204)" stroke-width="1px"></line><line x1="51.53200149536133" y1="35.372999954223665" x2="46.53200149536133" y2="35.372999954223665" style="visibility: inherit;" fill="rgb(0, 0, 0)" stroke="rgb(204, 204, 204)" stroke-width="1px"></line><line x1="51.53200149536133" y1="17.686499977111833" x2="46.53200149536133" y2="17.686499977111833" style="visibility: inherit;" fill="rgb(0, 0, 0)" stroke="rgb(204, 204, 204)" stroke-width="1px"></line><line x1="51.53200149536133" y1="0" x2="46.53200149536133" y2="0" style="visibility: inherit;" fill="rgb(0, 0, 0)" stroke="rgb(204, 204, 204)" stroke-width="1px"></line></g><g transform="translate(41.53200149536133, 0)"><text style="text-anchor: end; visibility: hidden; font-family: Roboto, sans-serif; font-size: 12px; font-weight: 200;" x="0" y="176.86499977111816" dx="0em" dy="0.3em" fill="rgb(33, 33, 33)" stroke="none" stroke-width="1px">0.89</text><text style="text-anchor: end; visibility: inherit; font-family: Roboto, sans-serif; font-size: 12px; font-weight: 200;" x="0" y="159.17849979400634" dx="0em" dy="0.3em" fill="rgb(33, 33, 33)" stroke="none" stroke-width="1px">0.9</text><text style="text-anchor: end; visibility: hidden; font-family: Roboto, sans-serif; font-size: 12px; font-weight: 200;" x="0" y="141.4919998168945" dx="0em" dy="0.3em" fill="rgb(33, 33, 33)" stroke="none" stroke-width="1px">0.91</text><text style="text-anchor: end; visibility: inherit; font-family: Roboto, sans-serif; font-size: 12px; font-weight: 200;" x="0" y="123.80549983978267" dx="0em" dy="0.3em" fill="rgb(33, 33, 33)" stroke="none" stroke-width="1px">0.92</text><text style="text-anchor: end; visibility: hidden; font-family: Roboto, sans-serif; font-size: 12px; font-weight: 200;" x="0" y="106.11899986267082" dx="0em" dy="0.3em" fill="rgb(33, 33, 33)" stroke="none" stroke-width="1px">0.93</text><text style="text-anchor: end; visibility: inherit; font-family: Roboto, sans-serif; font-size: 12px; font-weight: 200;" x="0" y="88.43249988555918" dx="0em" dy="0.3em" fill="rgb(33, 33, 33)" stroke="none" stroke-width="1px">0.94</text><text style="text-anchor: end; visibility: hidden; font-family: Roboto, sans-serif; font-size: 12px; font-weight: 200;" x="0" y="70.74599990844735" dx="0em" dy="0.3em" fill="rgb(33, 33, 33)" stroke="none" stroke-width="1px">0.95</text><text style="text-anchor: end; visibility: inherit; font-family: Roboto, sans-serif; font-size: 12px; font-weight: 200;" x="0" y="53.059499931335516" dx="0em" dy="0.3em" fill="rgb(33, 33, 33)" stroke="none" stroke-width="1px">0.96</text><text style="text-anchor: end; visibility: hidden; font-family: Roboto, sans-serif; font-size: 12px; font-weight: 200;" x="0" y="35.372999954223665" dx="0em" dy="0.3em" fill="rgb(33, 33, 33)" stroke="none" stroke-width="1px">0.97</text><text style="text-anchor: end; visibility: inherit; font-family: Roboto, sans-serif; font-size: 12px; font-weight: 200;" x="0" y="17.686499977111833" dx="0em" dy="0.3em" fill="rgb(33, 33, 33)" stroke="none" stroke-width="1px">0.98</text><text style="text-anchor: end; visibility: hidden; font-family: Roboto, sans-serif; font-size: 12px; font-weight: 200;" x="0" y="0" dx="0em" dy="0.3em" fill="rgb(33, 33, 33)" stroke="none" stroke-width="1px">0.99</text></g><line x1="51.53200149536133" y1="0" x2="51.53200149536133" y2="176.86499977111816" fill="rgb(0, 0, 0)" stroke="rgb(204, 204, 204)" stroke-width="1px"></line></g></g><g transform="translate(51, 0)" clip-path="url(#clip_0)"><clipPath id="clip_0"><rect width="278" height="176"></rect></clipPath><g><g><g><line x1="0" y1="0" x2="0" y2="176.86499977111816" fill="rgb(0, 0, 0)" stroke="rgb(66, 66, 66)" stroke-width="1px" opacity="0.25"></line><line x1="30.94088872273763" y1="0" x2="30.94088872273763" y2="176.86499977111816" fill="rgb(0, 0, 0)" stroke="rgb(66, 66, 66)" stroke-width="1px" opacity="0.25"></line><line x1="61.88177744547526" y1="0" x2="61.88177744547526" y2="176.86499977111816" fill="rgb(0, 0, 0)" stroke="rgb(66, 66, 66)" stroke-width="1px" opacity="0.25"></line><line x1="92.82266616821289" y1="0" x2="92.82266616821289" y2="176.86499977111816" fill="rgb(0, 0, 0)" stroke="rgb(66, 66, 66)" stroke-width="1px" opacity="0.25"></line><line x1="123.76355489095052" y1="0" x2="123.76355489095052" y2="176.86499977111816" fill="rgb(0, 0, 0)" stroke="rgb(66, 66, 66)" stroke-width="1px" opacity="0.25"></line><line x1="154.70444361368817" y1="0" x2="154.70444361368817" y2="176.86499977111816" fill="rgb(0, 0, 0)" stroke="rgb(66, 66, 66)" stroke-width="1px" opacity="0.25"></line><line x1="185.64533233642578" y1="0" x2="185.64533233642578" y2="176.86499977111816" fill="rgb(0, 0, 0)" stroke="rgb(66, 66, 66)" stroke-width="1px" opacity="0.25"></line><line x1="216.58622105916342" y1="0" x2="216.58622105916342" y2="176.86499977111816" fill="rgb(0, 0, 0)" stroke="rgb(66, 66, 66)" stroke-width="1px" opacity="0.25"></line><line x1="247.52710978190103" y1="0" x2="247.52710978190103" y2="176.86499977111816" fill="rgb(0, 0, 0)" stroke="rgb(66, 66, 66)" stroke-width="1px" opacity="0.25"></line><line x1="278.4679985046387" y1="0" x2="278.4679985046387" y2="176.86499977111816" fill="rgb(0, 0, 0)" stroke="rgb(66, 66, 66)" stroke-width="1px" opacity="0.25"></line></g><g><line x1="0" y1="176.86499977111816" x2="278.4679985046387" y2="176.86499977111816" fill="rgb(0, 0, 0)" stroke="rgb(66, 66, 66)" stroke-width="1px" opacity="0.25"></line><line x1="0" y1="159.17849979400634" x2="278.4679985046387" y2="159.17849979400634" fill="rgb(0, 0, 0)" stroke="rgb(66, 66, 66)" stroke-width="1px" opacity="0.25"></line><line x1="0" y1="141.4919998168945" x2="278.4679985046387" y2="141.4919998168945" fill="rgb(0, 0, 0)" stroke="rgb(66, 66, 66)" stroke-width="1px" opacity="0.25"></line><line x1="0" y1="123.80549983978267" x2="278.4679985046387" y2="123.80549983978267" fill="rgb(0, 0, 0)" stroke="rgb(66, 66, 66)" stroke-width="1px" opacity="0.25"></line><line x1="0" y1="106.11899986267082" x2="278.4679985046387" y2="106.11899986267082" fill="rgb(0, 0, 0)" stroke="rgb(66, 66, 66)" stroke-width="1px" opacity="0.25"></line><line x1="0" y1="88.43249988555918" x2="278.4679985046387" y2="88.43249988555918" fill="rgb(0, 0, 0)" stroke="rgb(66, 66, 66)" stroke-width="1px" opacity="0.25"></line><line x1="0" y1="70.74599990844735" x2="278.4679985046387" y2="70.74599990844735" fill="rgb(0, 0, 0)" stroke="rgb(66, 66, 66)" stroke-width="1px" opacity="0.25"></line><line x1="0" y1="53.059499931335516" x2="278.4679985046387" y2="53.059499931335516" fill="rgb(0, 0, 0)" stroke="rgb(66, 66, 66)" stroke-width="1px" opacity="0.25"></line><line x1="0" y1="35.372999954223665" x2="278.4679985046387" y2="35.372999954223665" fill="rgb(0, 0, 0)" stroke="rgb(66, 66, 66)" stroke-width="1px" opacity="0.25"></line><line x1="0" y1="17.686499977111833" x2="278.4679985046387" y2="17.686499977111833" fill="rgb(0, 0, 0)" stroke="rgb(66, 66, 66)" stroke-width="1px" opacity="0.25"></line><line x1="0" y1="0" x2="278.4679985046387" y2="0" fill="rgb(0, 0, 0)" stroke="rgb(66, 66, 66)" stroke-width="1px" opacity="0.25"></line></g></g></g><g><g><line x1="0" y1="1750.9634977340702" x2="278.4679985046387" y2="1750.9634977340702" fill="rgb(0, 0, 0)" stroke="rgb(153, 153, 153)" stroke-width="1.5px"></line></g></g><g><g><line x1="0" y1="0" x2="0" y2="176.86499977111816" fill="rgb(0, 0, 0)" stroke="rgb(153, 153, 153)" stroke-width="1.5px"></line></g></g><g><g><g><g><g><path style="fill: none;" stroke="rgb(51, 187, 238)" stroke-width="2px" d="M24.752710978190105,187.28538072786185L30.94088872273763,156.97731636637704L37.129066467285156,136.13726629986803L43.31724421183268,118.67873516078899L49.50542195638021,105.39192366864161L55.693599700927734,92.98091870756814L61.88177744547526,84.07090996231959L68.06995519002278,75.40780404232544L74.25813293457031,73.61088425199885L80.44631067911783,68.70905317062312L86.63448842366536,65.23614858027274L92.82266616821289,61.574751507395845L99.01084391276042,58.19257722305987L105.19902165730794,54.14137649403822L111.38719940185547,50.41570614211697L117.575377146403,47.63925132462873L123.76355489095052,45.3879100749151L129.95173263549805,42.81477325901012L136.13991038004556,41.41118259341186L142.32808812459308,38.53405555983353L148.51626586914062,37.46098269249231L154.70444361368817,35.58287967584756L160.89262135823566,34.26047449513853L167.0807991027832,33.891431372691876L173.26897684733072,32.48826881940785L179.45715459187826,31.23378820180212L185.64533233642578,30.03156088811994L191.8335100809733,28.871022231684503L198.02168782552084,28.784310157058144L204.20986557006833,27.60815748667958L210.39804331461588,26.91097827592369L216.58622105916342,25.667286244580456L222.77439880371094,24.22994504990848L228.96257654825845,23.345777021564945L235.150754292806,23.899733966048476L241.33893203735352,23.12594325871992L247.52710978190103,22.661839190747312" fill="none"></path></g><g><path style="fill: none;" stroke="rgb(204, 51, 17)" stroke-width="2px" d="M6.188177744547526,159.67390938992745L12.376355489095053,103.52629376162817L18.564533233642578,82.27466489556508L24.752710978190105,62.845453170105756L30.94088872273763,59.52169845756633L37.129066467285156,50.67976018669241L43.31724421183268,46.41735609577687L49.50542195638021,41.96540135550104L55.693599700927734,38.25663306191816L61.88177744547526,35.93438780569324L68.06995519002278,35.04195348242144L74.25813293457031,40.31578611156151L80.44631067911783,37.26712119453657L86.63448842366536,35.098586267654746L92.82266616821289,31.961581574358956L99.01084391276042,29.900678197410038L105.19902165730794,28.07058671715239L111.38719940185547,29.043262358008153L117.575377146403,28.60860834869569L123.76355489095052,32.47323442916272L129.95173263549805,32.94857874882516L136.13991038004556,34.32546986606527L142.32808812459308,61.53746961686852L148.51626586914062,51.78985359279235L154.70444361368817,46.395429693341995L160.89262135823566,41.29217426731915L167.0807991027832,66.01914772093242L173.26897684733072,57.783314134157294L179.45715459187826,56.55922098060433L185.64533233642578,49.03297779214488L191.8335100809733,53.92538852179888L198.02168782552084,49.90456406493414L204.20986557006833,45.499289619427664L210.39804331461588,48.91547638045426L216.58622105916342,45.105602288021295L222.77439880371094,37.69714708795448L228.96257654825845,39.10537074570344L235.150754292806,64.41334306570725L241.33893203735352,56.51328820720703L247.52710978190103,50.986494525913564" fill="none"></path></g></g></g></g><g opacity="0.2"><g><g><g><path style="fill: none;" stroke="rgb(51, 187, 238)" stroke-width="2px" d="M12.376355489095053,186.8309870159402L18.564533233642578,127.65476725068254L24.752710978190105,102.76748236624995L30.94088872273763,85.40179157029398L37.129066467285156,80.09253645700652L43.31724421183268,67.15120735216429L49.50542195638021,63.390463017803405L55.693599700927734,51.66578330363391L61.88177744547526,53.21439950231534L68.06995519002278,44.476156023166006L74.25813293457031,67.04062202933129L80.44631067911783,50.44913391296118L86.63448842366536,52.10823001472077L92.82266616821289,47.57328300077402L99.01084391276042,45.13987879967372L105.19902165730794,38.39269823029266L111.38719940185547,35.84860328660451L117.575377146403,36.733496708778226L123.76355489095052,36.51232606311222L129.95173263549805,32.64089098616349L136.13991038004556,35.84860328660451L142.32808812459308,27.110465227210018L148.51626586914062,33.1940284398382L154.70444361368817,28.10594397221674L160.89262135823566,28.990837394390457L167.0807991027832,32.419720340497484L173.26897684733072,26.889189161789165L179.45715459187826,26.2255718050363L185.64533233642578,25.230093060029578L191.8335100809733,24.234614315022856L198.02168782552084,28.437805360470595L204.20986557006833,22.90727418176228L210.39804331461588,24.124028992189853L216.58622105916342,20.695040626327984L222.77439880371094,18.482912490648534L228.96257654825845,19.81025262390911L235.150754292806,26.114986482203296L241.33893203735352,20.031423269575118L247.52710978190103,20.805731368915833" fill="none"></path></g><g><path style="fill: none;" stroke="rgb(204, 51, 17)" stroke-width="2px" d="M6.188177744547526,159.67390938992764L12.376355489095053,58.60820125898895L18.564533233642578,51.672319328434334L24.752710978190105,24.919631882009373L30.94088872273763,51.672319328434334L37.129066467285156,26.901312433596406L43.31724421183268,33.837194364151024L49.50542195638021,27.892152709389922L55.693599700927734,25.91047215780289L61.88177744547526,27.892152709389922L68.06995519002278,31.855513812563988L74.25813293457031,59.599041534782465L80.44631067911783,25.91047215780289L86.63448842366536,26.901312433596406L92.82266616821289,19.96543050304179L99.01084391276042,21.947111054628824L105.19902165730794,20.956270778835307L111.38719940185547,32.84635408835751L117.575377146403,26.901312433596406L123.76355489095052,47.70895822526027L129.95173263549805,34.82803463994454L136.13991038004556,39.78223601891212L142.32808812459308,169.5823121478628L148.51626586914062,13.029548572487176L154.70444361368817,24.919631882009373L160.89262135823566,20.956270778835307L167.0807991027832,164.62811076889523L173.26897684733072,24.919631882009373L179.45715459187826,51.672319328434334L185.64533233642578,18.974590227248274L191.8335100809733,73.4708053958917L198.02168782552084,33.837194364151024L204.20986557006833,27.892152709389922L210.39804331461588,62.571562362163014L216.58622105916342,29.873833260976955L222.77439880371094,8.075347193519594L228.96257654825845,44.73643739787972L235.150754292806,165.61895104468874L241.33893203735352,24.919631882009373L247.52710978190103,28.88299298518344" fill="none"></path></g></g></g></g></g></g><g transform="translate(51, 176)" clip-path="url(#clip_1)"><clipPath id="clip_1"><rect width="278" height="23"></rect></clipPath><g><g><line x1="0" y1="0" x2="0" y2="5" style="visibility: inherit;" fill="rgb(0, 0, 0)" stroke="rgb(204, 204, 204)" stroke-width="1px"></line><line x1="30.94088872273763" y1="0" x2="30.94088872273763" y2="5" style="visibility: inherit;" fill="rgb(0, 0, 0)" stroke="rgb(204, 204, 204)" stroke-width="1px"></line><line x1="61.88177744547526" y1="0" x2="61.88177744547526" y2="5" style="visibility: inherit;" fill="rgb(0, 0, 0)" stroke="rgb(204, 204, 204)" stroke-width="1px"></line><line x1="92.82266616821289" y1="0" x2="92.82266616821289" y2="5" style="visibility: inherit;" fill="rgb(0, 0, 0)" stroke="rgb(204, 204, 204)" stroke-width="1px"></line><line x1="123.76355489095052" y1="0" x2="123.76355489095052" y2="5" style="visibility: inherit;" fill="rgb(0, 0, 0)" stroke="rgb(204, 204, 204)" stroke-width="1px"></line><line x1="154.70444361368817" y1="0" x2="154.70444361368817" y2="5" style="visibility: inherit;" fill="rgb(0, 0, 0)" stroke="rgb(204, 204, 204)" stroke-width="1px"></line><line x1="185.64533233642578" y1="0" x2="185.64533233642578" y2="5" style="visibility: inherit;" fill="rgb(0, 0, 0)" stroke="rgb(204, 204, 204)" stroke-width="1px"></line><line x1="216.58622105916342" y1="0" x2="216.58622105916342" y2="5" style="visibility: inherit;" fill="rgb(0, 0, 0)" stroke="rgb(204, 204, 204)" stroke-width="1px"></line><line x1="247.52710978190103" y1="0" x2="247.52710978190103" y2="5" style="visibility: inherit;" fill="rgb(0, 0, 0)" stroke="rgb(204, 204, 204)" stroke-width="1px"></line><line x1="278.4679985046387" y1="0" x2="278.4679985046387" y2="5" style="visibility: inherit;" fill="rgb(0, 0, 0)" stroke="rgb(204, 204, 204)" stroke-width="1px"></line></g><g transform="translate(0, 8)"><text style="text-anchor: middle; visibility: hidden; font-family: Roboto, sans-serif; font-size: 12px; font-weight: 200;" x="0" y="0" dx="0em" dy="0.95em" fill="rgb(33, 33, 33)" stroke="none" stroke-width="1px">0</text><text style="text-anchor: middle; visibility: inherit; font-family: Roboto, sans-serif; font-size: 12px; font-weight: 200;" x="30.94088872273763" y="0" dx="0em" dy="0.95em" fill="rgb(33, 33, 33)" stroke="none" stroke-width="1px">5</text><text style="text-anchor: middle; visibility: inherit; font-family: Roboto, sans-serif; font-size: 12px; font-weight: 200;" x="61.88177744547526" y="0" dx="0em" dy="0.95em" fill="rgb(33, 33, 33)" stroke="none" stroke-width="1px">10</text><text style="text-anchor: middle; visibility: inherit; font-family: Roboto, sans-serif; font-size: 12px; font-weight: 200;" x="92.82266616821289" y="0" dx="0em" dy="0.95em" fill="rgb(33, 33, 33)" stroke="none" stroke-width="1px">15</text><text style="text-anchor: middle; visibility: inherit; font-family: Roboto, sans-serif; font-size: 12px; font-weight: 200;" x="123.76355489095052" y="0" dx="0em" dy="0.95em" fill="rgb(33, 33, 33)" stroke="none" stroke-width="1px">20</text><text style="text-anchor: middle; visibility: inherit; font-family: Roboto, sans-serif; font-size: 12px; font-weight: 200;" x="154.70444361368817" y="0" dx="0em" dy="0.95em" fill="rgb(33, 33, 33)" stroke="none" stroke-width="1px">25</text><text style="text-anchor: middle; visibility: inherit; font-family: Roboto, sans-serif; font-size: 12px; font-weight: 200;" x="185.64533233642578" y="0" dx="0em" dy="0.95em" fill="rgb(33, 33, 33)" stroke="none" stroke-width="1px">30</text><text style="text-anchor: middle; visibility: inherit; font-family: Roboto, sans-serif; font-size: 12px; font-weight: 200;" x="216.58622105916342" y="0" dx="0em" dy="0.95em" fill="rgb(33, 33, 33)" stroke="none" stroke-width="1px">35</text><text style="text-anchor: middle; visibility: inherit; font-family: Roboto, sans-serif; font-size: 12px; font-weight: 200;" x="247.52710978190103" y="0" dx="0em" dy="0.95em" fill="rgb(33, 33, 33)" stroke="none" stroke-width="1px">40</text><text style="text-anchor: middle; visibility: hidden; font-family: Roboto, sans-serif; font-size: 12px; font-weight: 200;" x="278.4679985046387" y="0" dx="0em" dy="0.95em" fill="rgb(33, 33, 33)" stroke="none" stroke-width="1px">45</text></g><line x1="0" y1="0" x2="278.4679985046387" y2="0" fill="rgb(0, 0, 0)" stroke="rgb(204, 204, 204)" stroke-width="1px"></line></g></g></g></g></svg>