<svg viewBox="0 0 330 200" xmlns="http://www.w3.org/2000/svg"><g><g><g><g><g><line x1="51.53200149536133" y1="176.86499977111816" x2="46.53200149536133" y2="176.86499977111816" style="visibility: inherit;" fill="rgb(0, 0, 0)" stroke="rgb(204, 204, 204)" stroke-width="1px"></line><line x1="51.53200149536133" y1="154.7568747997284" x2="46.53200149536133" y2="154.7568747997284" style="visibility: inherit;" fill="rgb(0, 0, 0)" stroke="rgb(204, 204, 204)" stroke-width="1px"></line><line x1="51.53200149536133" y1="132.64874982833862" x2="46.53200149536133" y2="132.64874982833862" style="visibility: inherit;" fill="rgb(0, 0, 0)" stroke="rgb(204, 204, 204)" stroke-width="1px"></line><line x1="51.53200149536133" y1="110.54062485694885" x2="46.53200149536133" y2="110.54062485694885" style="visibility: inherit;" fill="rgb(0, 0, 0)" stroke="rgb(204, 204, 204)" stroke-width="1px"></line><line x1="51.53200149536133" y1="88.43249988555908" x2="46.53200149536133" y2="88.43249988555908" style="visibility: inherit;" fill="rgb(0, 0, 0)" stroke="rgb(204, 204, 204)" stroke-width="1px"></line><line x1="51.53200149536133" y1="66.32437491416931" x2="46.53200149536133" y2="66.32437491416931" style="visibility: inherit;" fill="rgb(0, 0, 0)" stroke="rgb(204, 204, 204)" stroke-width="1px"></line><line x1="51.53200149536133" y1="44.21624994277956" x2="46.53200149536133" y2="44.21624994277956" style="visibility: inherit;" fill="rgb(0, 0, 0)" stroke="rgb(204, 204, 204)" stroke-width="1px"></line><line x1="51.53200149536133" y1="22.10812497138977" x2="46.53200149536133" y2="22.10812497138977" style="visibility: inherit;" fill="rgb(0, 0, 0)" stroke="rgb(204, 204, 204)" stroke-width="1px"></line><line x1="51.53200149536133" y1="0" x2="46.53200149536133" y2="0" style="visibility: inherit;" fill="rgb(0, 0, 0)" stroke="rgb(204, 204, 204)" stroke-width="1px"></line></g><g transform="translate(41.53200149536133, 0)"><text style="text-anchor: end; visibility: hidden; font-family: Roboto, sans-serif; font-size: 12px; font-weight: 200;" x="0" y="176.86499977111816" dx="0em" dy="0.3em" fill="rgb(33, 33, 33)" stroke="none" stroke-width="1px">0.05</text><text style="text-anchor: end; visibility: inherit; font-family: Roboto, sans-serif; font-size: 12px; font-weight: 200;" x="0" y="154.7568747997284" dx="0em" dy="0.3em" fill="rgb(33, 33, 33)" stroke="none" stroke-width="1px">0.1</text><text style="text-anchor: end; visibility: hidden; font-family: Roboto, sans-serif; font-size: 12px; font-weight: 200;" x="0" y="132.64874982833862" dx="0em" dy="0.3em" fill="rgb(33, 33, 33)" stroke="none" stroke-width="1px">0.15</text><text style="text-anchor: end; visibility: inherit; font-family: Roboto, sans-serif; font-size: 12px; font-weight: 200;" x="0" y="110.54062485694885" dx="0em" dy="0.3em" fill="rgb(33, 33, 33)" stroke="none" stroke-width="1px">0.2</text><text style="text-anchor: end; visibility: hidden; font-family: Roboto, sans-serif; font-size: 12px; font-weight: 200;" x="0" y="88.43249988555908" dx="0em" dy="0.3em" fill="rgb(33, 33, 33)" stroke="none" stroke-width="1px">0.25</text><text style="text-anchor: end; visibility: inherit; font-family: Roboto, sans-serif; font-size: 12px; font-weight: 200;" x="0" y="66.32437491416931" dx="0em" dy="0.3em" fill="rgb(33, 33, 33)" stroke="none" stroke-width="1px">0.3</text><text style="text-anchor: end; visibility: hidden; font-family: Roboto, sans-serif; font-size: 12px; font-weight: 200;" x="0" y="44.21624994277956" dx="0em" dy="0.3em" fill="rgb(33, 33, 33)" stroke="none" stroke-width="1px">0.35</text><text style="text-anchor: end; visibility: inherit; font-family: Roboto, sans-serif; font-size: 12px; font-weight: 200;" x="0" y="22.10812497138977" dx="0em" dy="0.3em" fill="rgb(33, 33, 33)" stroke="none" stroke-width="1px">0.4</text><text style="text-anchor: end; visibility: hidden; font-family: Roboto, sans-serif; font-size: 12px; font-weight: 200;" x="0" y="0" dx="0em" dy="0.3em" fill="rgb(33, 33, 33)" stroke="none" stroke-width="1px">0.45</text></g><line x1="51.53200149536133" y1="0" x2="51.53200149536133" y2="176.86499977111816" fill="rgb(0, 0, 0)" stroke="rgb(204, 204, 204)" stroke-width="1px"></line></g></g><g transform="translate(51, 0)" clip-path="url(#clip_0)"><clipPath id="clip_0"><rect width="278" height="176"></rect></clipPath><g><g><g><line x1="0" y1="0" x2="0" y2="176.86499977111816" fill="rgb(0, 0, 0)" stroke="rgb(66, 66, 66)" stroke-width="1px" opacity="0.25"></line><line x1="30.94088872273763" y1="0" x2="30.94088872273763" y2="176.86499977111816" fill="rgb(0, 0, 0)" stroke="rgb(66, 66, 66)" stroke-width="1px" opacity="0.25"></line><line x1="61.88177744547526" y1="0" x2="61.88177744547526" y2="176.86499977111816" fill="rgb(0, 0, 0)" stroke="rgb(66, 66, 66)" stroke-width="1px" opacity="0.25"></line><line x1="92.82266616821289" y1="0" x2="92.82266616821289" y2="176.86499977111816" fill="rgb(0, 0, 0)" stroke="rgb(66, 66, 66)" stroke-width="1px" opacity="0.25"></line><line x1="123.76355489095052" y1="0" x2="123.76355489095052" y2="176.86499977111816" fill="rgb(0, 0, 0)" stroke="rgb(66, 66, 66)" stroke-width="1px" opacity="0.25"></line><line x1="154.70444361368817" y1="0" x2="154.70444361368817" y2="176.86499977111816" fill="rgb(0, 0, 0)" stroke="rgb(66, 66, 66)" stroke-width="1px" opacity="0.25"></line><line x1="185.64533233642578" y1="0" x2="185.64533233642578" y2="176.86499977111816" fill="rgb(0, 0, 0)" stroke="rgb(66, 66, 66)" stroke-width="1px" opacity="0.25"></line><line x1="216.58622105916342" y1="0" x2="216.58622105916342" y2="176.86499977111816" fill="rgb(0, 0, 0)" stroke="rgb(66, 66, 66)" stroke-width="1px" opacity="0.25"></line><line x1="247.52710978190103" y1="0" x2="247.52710978190103" y2="176.86499977111816" fill="rgb(0, 0, 0)" stroke="rgb(66, 66, 66)" stroke-width="1px" opacity="0.25"></line><line x1="278.4679985046387" y1="0" x2="278.4679985046387" y2="176.86499977111816" fill="rgb(0, 0, 0)" stroke="rgb(66, 66, 66)" stroke-width="1px" opacity="0.25"></line></g><g><line x1="0" y1="176.86499977111816" x2="278.4679985046387" y2="176.86499977111816" fill="rgb(0, 0, 0)" stroke="rgb(66, 66, 66)" stroke-width="1px" opacity="0.25"></line><line x1="0" y1="154.7568747997284" x2="278.4679985046387" y2="154.7568747997284" fill="rgb(0, 0, 0)" stroke="rgb(66, 66, 66)" stroke-width="1px" opacity="0.25"></line><line x1="0" y1="132.64874982833862" x2="278.4679985046387" y2="132.64874982833862" fill="rgb(0, 0, 0)" stroke="rgb(66, 66, 66)" stroke-width="1px" opacity="0.25"></line><line x1="0" y1="110.54062485694885" x2="278.4679985046387" y2="110.54062485694885" fill="rgb(0, 0, 0)" stroke="rgb(66, 66, 66)" stroke-width="1px" opacity="0.25"></line><line x1="0" y1="88.43249988555908" x2="278.4679985046387" y2="88.43249988555908" fill="rgb(0, 0, 0)" stroke="rgb(66, 66, 66)" stroke-width="1px" opacity="0.25"></line><line x1="0" y1="66.32437491416931" x2="278.4679985046387" y2="66.32437491416931" fill="rgb(0, 0, 0)" stroke="rgb(66, 66, 66)" stroke-width="1px" opacity="0.25"></line><line x1="0" y1="44.21624994277956" x2="278.4679985046387" y2="44.21624994277956" fill="rgb(0, 0, 0)" stroke="rgb(66, 66, 66)" stroke-width="1px" opacity="0.25"></line><line x1="0" y1="22.10812497138977" x2="278.4679985046387" y2="22.10812497138977" fill="rgb(0, 0, 0)" stroke="rgb(66, 66, 66)" stroke-width="1px" opacity="0.25"></line><line x1="0" y1="0" x2="278.4679985046387" y2="0" fill="rgb(0, 0, 0)" stroke="rgb(66, 66, 66)" stroke-width="1px" opacity="0.25"></line></g></g></g><g><g><line x1="0" y1="198.97312474250793" x2="278.4679985046387" y2="198.97312474250793" fill="rgb(0, 0, 0)" stroke="rgb(153, 153, 153)" stroke-width="1.5px"></line></g></g><g><g><line x1="0" y1="0" x2="0" y2="176.86499977111816" fill="rgb(0, 0, 0)" stroke="rgb(153, 153, 153)" stroke-width="1.5px"></line></g></g><g><g><g><g><g><path style="fill: none;" stroke="rgb(0, 119, 187)" stroke-width="2px" d="M18.564533233642578,-15.425797425454858L24.752710978190105,19.547556698274644L30.94088872273763,44.98838653315437L37.129066467285156,62.183641355224374L43.31724421183268,76.7403008247335L49.50542195638021,88.52772489289345L55.693599700927734,99.24077526044434L61.88177744547526,106.28019921188209L68.06995519002278,114.07648608137973L74.25813293457031,115.24551641763647L80.44631067911783,119.72964679697404L86.63448842366536,122.71096937270005L92.82266616821289,126.72354264955658L99.01084391276042,129.25866812776854L105.19902165730794,132.53767930966723L111.38719940185547,135.8404567837959L117.575377146403,138.39977866549566L123.76355489095052,140.71455621040585L129.95173263549805,143.04014674702685L136.13991038004556,144.3964916354062L142.32808812459308,146.49832992701326L148.51626586914062,147.81464547298705L154.70444361368817,149.63800693665476L160.89262135823566,150.52699322463354L167.0807991027832,151.25815750097902L173.26897684733072,152.13576400138217L179.45715459187826,153.3220201340596L185.64533233642578,154.335491297386L191.8335100809733,155.67001513971712L198.02168782552084,155.90938276848019L204.20986557006833,156.82227436887354L210.39804331461588,157.47468567919165L216.58622105916342,158.23566286579575L222.77439880371094,159.56586537707074L228.96257654825845,160.42130147275958L235.150754292806,159.59356408039926L241.33893203735352,160.3477802343231L247.52710978190103,160.86552283448228" fill="none"></path></g><g><path style="fill: none;" stroke="rgb(255, 112, 67)" stroke-width="2px" d="M6.188177744547526,19.38685631672041L12.376355489095053,58.26589250948049L18.564533233642578,81.81736511996519L24.752710978190105,103.50837994445962L30.94088872273763,108.01655782208651L37.129066467285156,117.94122711661343L43.31724421183268,122.88808763048164L49.50542195638021,129.04159749048816L55.693599700927734,134.48502170030892L61.88177744547526,138.66003859225765L68.06995519002278,136.85959911043807L74.25813293457031,129.99967271488765L80.44631067911783,130.79369329352446L86.63448842366536,132.2895664841779L92.82266616821289,137.8421174892662L99.01084391276042,138.90253098073117L105.19902165730794,141.95201720381L111.38719940185547,141.35710819778373L117.575377146403,140.05002913408123L123.76355489095052,140.21587056250945L129.95173263549805,140.85606865699498L136.13991038004556,140.95124849949744L142.32808812459308,127.16563181173572L148.51626586914062,134.37203381479216L154.70444361368817,137.80405287453658L160.89262135823566,138.4280346236378L167.0807991027832,131.27609829822399L173.26897684733072,135.42802528618705L179.45715459187826,131.94274344395342L185.64533233642578,136.97743535733045L191.8335100809733,132.63099495323982L198.02168782552084,136.27467269953218L204.20986557006833,139.58328413908603L210.39804331461588,134.80715558497374L216.58622105916342,136.38683048638114L222.77439880371094,143.2398736328544L228.96257654825845,141.2530297747183L235.150754292806,129.33756639179953L241.33893203735352,135.293091746855L247.52710978190103,136.72861824198105" fill="none"></path></g></g></g></g><g opacity="0.2"><g><g><g><path style="fill: none;" stroke="rgb(0, 119, 187)" stroke-width="2px" d="M6.188177744547526,-191.37651395648314L12.376355489095053,19.69914916298106L18.564533233642578,69.08270388365463L24.752710978190105,87.81554394779474L30.94088872273763,105.06945027120634L37.129066467285156,108.42649624312078L43.31724421183268,119.70317494286999L49.50542195638021,125.78941318177738L55.693599700927734,134.90357032923666L61.88177744547526,130.65863306087007L68.06995519002278,141.91315384589768L74.25813293457031,119.51996199768307L80.44631067911783,136.43357994118784L86.63448842366536,133.98065990797176L92.82266616821289,142.0679364009497L99.01084391276042,139.04238284814716L105.19902165730794,145.28454019883847L111.38719940185547,148.75407893227515L117.575377146403,148.45264761513093L123.76355489095052,149.84022854955109L129.95173263549805,152.2352599598876L136.13991038004556,149.77183089486033L142.32808812459308,154.8436477765622L148.51626586914062,153.04882703480627L154.70444361368817,156.89701046707688L160.89262135823566,154.0695043955884L167.0807991027832,154.17397537264037L173.26897684733072,155.6377023137324L179.45715459187826,158.0578664524976L185.64533233642578,158.38310286803286L191.8335100809733,161.00150226705045L198.02168782552084,156.86590505066275L204.20986557006833,160.47094770148405L210.39804331461588,160.0826768612858L216.58622105916342,161.27802816711238L222.77439880371094,164.88451704519548L228.96257654825845,163.84193543597684L235.150754292806,156.28347408261033L241.33893203735352,163.36401827175177L247.52710978190103,162.93614913613965" fill="none"></path></g><g><path style="fill: none;" stroke="rgb(255, 112, 67)" stroke-width="2px" d="M6.188177744547526,19.38685631672041L12.376355489095053,89.36912146368859L18.564533233642578,115.73148567906313L24.752710978190105,145.8492408818728L30.94088872273763,118.6630706978902L37.129066467285156,144.63144175699878L43.31724421183268,137.48837047576455L49.50542195638021,148.49369872654125L55.693599700927734,152.60569838968024L61.88177744547526,153.1186610336568L68.06995519002278,130.43112405244398L74.25813293457031,104.91701989443432L80.44631067911783,133.75151689334555L86.63448842366536,137.9441132534313L92.82266616821289,159.07550640659323L99.01084391276042,142.99494501518421L105.19902165730794,153.80662047067696L111.38719940185547,139.03105681323592L117.575377146403,134.9158978518189L123.76355489095052,140.86967616876285L129.95173263549805,143.38733710892348L136.13991038004556,141.32845635311608L142.32808812459308,72.4300446493886L148.51626586914062,163.02748547061134L154.70444361368817,151.46730010640897L160.89262135823566,140.91453227444964L167.0807991027832,102.75481460140892L173.26897684733072,151.99557826414417L179.45715459187826,118.0285821371481L185.64533233642578,157.08503977731328L191.8335100809733,115.26675586729579L198.02168782552084,150.83494959006984L204.20986557006833,152.80724448910829L210.39804331461588,115.71475029298139L216.58622105916342,142.70232613067162L222.77439880371094,170.64092652049715L228.96257654825845,133.30823341295462L235.150754292806,81.68808658474273L241.33893203735352,159.1102455101822L247.52710978190103,142.4697701514823" fill="none"></path></g></g></g></g></g></g><g transform="translate(51, 176)" clip-path="url(#clip_1)"><clipPath id="clip_1"><rect width="278" height="23"></rect></clipPath><g><g><line x1="0" y1="0" x2="0" y2="5" style="visibility: inherit;" fill="rgb(0, 0, 0)" stroke="rgb(204, 204, 204)" stroke-width="1px"></line><line x1="30.94088872273763" y1="0" x2="30.94088872273763" y2="5" style="visibility: inherit;" fill="rgb(0, 0, 0)" stroke="rgb(204, 204, 204)" stroke-width="1px"></line><line x1="61.88177744547526" y1="0" x2="61.88177744547526" y2="5" style="visibility: inherit;" fill="rgb(0, 0, 0)" stroke="rgb(204, 204, 204)" stroke-width="1px"></line><line x1="92.82266616821289" y1="0" x2="92.82266616821289" y2="5" style="visibility: inherit;" fill="rgb(0, 0, 0)" stroke="rgb(204, 204, 204)" stroke-width="1px"></line><line x1="123.76355489095052" y1="0" x2="123.76355489095052" y2="5" style="visibility: inherit;" fill="rgb(0, 0, 0)" stroke="rgb(204, 204, 204)" stroke-width="1px"></line><line x1="154.70444361368817" y1="0" x2="154.70444361368817" y2="5" style="visibility: inherit;" fill="rgb(0, 0, 0)" stroke="rgb(204, 204, 204)" stroke-width="1px"></line><line x1="185.64533233642578" y1="0" x2="185.64533233642578" y2="5" style="visibility: inherit;" fill="rgb(0, 0, 0)" stroke="rgb(204, 204, 204)" stroke-width="1px"></line><line x1="216.58622105916342" y1="0" x2="216.58622105916342" y2="5" style="visibility: inherit;" fill="rgb(0, 0, 0)" stroke="rgb(204, 204, 204)" stroke-width="1px"></line><line x1="247.52710978190103" y1="0" x2="247.52710978190103" y2="5" style="visibility: inherit;" fill="rgb(0, 0, 0)" stroke="rgb(204, 204, 204)" stroke-width="1px"></line><line x1="278.4679985046387" y1="0" x2="278.4679985046387" y2="5" style="visibility: inherit;" fill="rgb(0, 0, 0)" stroke="rgb(204, 204, 204)" stroke-width="1px"></line></g><g transform="translate(0, 8)"><text style="text-anchor: middle; visibility: hidden; font-family: Roboto, sans-serif; font-size: 12px; font-weight: 200;" x="0" y="0" dx="0em" dy="0.95em" fill="rgb(33, 33, 33)" stroke="none" stroke-width="1px">0</text><text style="text-anchor: middle; visibility: inherit; font-family: Roboto, sans-serif; font-size: 12px; font-weight: 200;" x="30.94088872273763" y="0" dx="0em" dy="0.95em" fill="rgb(33, 33, 33)" stroke="none" stroke-width="1px">5</text><text style="text-anchor: middle; visibility: inherit; font-family: Roboto, sans-serif; font-size: 12px; font-weight: 200;" x="61.88177744547526" y="0" dx="0em" dy="0.95em" fill="rgb(33, 33, 33)" stroke="none" stroke-width="1px">10</text><text style="text-anchor: middle; visibility: inherit; font-family: Roboto, sans-serif; font-size: 12px; font-weight: 200;" x="92.82266616821289" y="0" dx="0em" dy="0.95em" fill="rgb(33, 33, 33)" stroke="none" stroke-width="1px">15</text><text style="text-anchor: middle; visibility: inherit; font-family: Roboto, sans-serif; font-size: 12px; font-weight: 200;" x="123.76355489095052" y="0" dx="0em" dy="0.95em" fill="rgb(33, 33, 33)" stroke="none" stroke-width="1px">20</text><text style="text-anchor: middle; visibility: inherit; font-family: Roboto, sans-serif; font-size: 12px; font-weight: 200;" x="154.70444361368817" y="0" dx="0em" dy="0.95em" fill="rgb(33, 33, 33)" stroke="none" stroke-width="1px">25</text><text style="text-anchor: middle; visibility: inherit; font-family: Roboto, sans-serif; font-size: 12px; font-weight: 200;" x="185.64533233642578" y="0" dx="0em" dy="0.95em" fill="rgb(33, 33, 33)" stroke="none" stroke-width="1px">30</text><text style="text-anchor: middle; visibility: inherit; font-family: Roboto, sans-serif; font-size: 12px; font-weight: 200;" x="216.58622105916342" y="0" dx="0em" dy="0.95em" fill="rgb(33, 33, 33)" stroke="none" stroke-width="1px">35</text><text style="text-anchor: middle; visibility: inherit; font-family: Roboto, sans-serif; font-size: 12px; font-weight: 200;" x="247.52710978190103" y="0" dx="0em" dy="0.95em" fill="rgb(33, 33, 33)" stroke="none" stroke-width="1px">40</text><text style="text-anchor: middle; visibility: hidden; font-family: Roboto, sans-serif; font-size: 12px; font-weight: 200;" x="278.4679985046387" y="0" dx="0em" dy="0.95em" fill="rgb(33, 33, 33)" stroke="none" stroke-width="1px">45</text></g><line x1="0" y1="0" x2="278.4679985046387" y2="0" fill="rgb(0, 0, 0)" stroke="rgb(204, 204, 204)" stroke-width="1px"></line></g></g></g></g></svg>